<?xml version="1.0" encoding="UTF-8" standalone="no"?> <svg width="64" height="64" viewBox="0 0 64 64" fill="none" xmlns="http://www.w3.org/2000/svg">
<path d="M12.3901 30.92V30.86C12.4554 30.6595 12.5825 30.4848 12.7531 30.3609C12.9238 30.237 13.1292 30.1702 13.3401 30.17H50.6401C50.8594 30.1593 51.0761 30.221 51.2569 30.3457C51.4376 30.4704 51.5723 30.6512 51.6401 30.86L51.7201 31.12C52.0039 30.3057 52.1591 29.4521 52.1801 28.59C52.1743 27.4336 51.8738 26.2978 51.3069 25.2899C50.7399 24.2821 49.9253 23.4354 48.9401 22.83C51.7101 17.91 46.2801 12.18 41.2201 14.67C40.1211 13.2013 38.5567 12.1485 36.7822 11.6835C35.0077 11.2186 33.1281 11.3689 31.4501 12.11C31.2587 12.1899 31.0717 12.28 30.8901 12.38C30.0844 11.5485 29.0944 10.9182 28.0001 10.54C26.2931 9.91796 24.4202 9.92458 22.7177 10.5587C21.0151 11.1928 19.5943 12.4129 18.7101 14C17.6144 14.2305 16.5825 14.6981 15.6869 15.3699C14.7912 16.0418 14.0535 16.9015 13.5255 17.8888C12.9975 18.8762 12.6921 19.9671 12.6307 21.085C12.5693 22.203 12.7534 23.3208 13.1701 24.36C12.5513 25.3228 12.1596 26.4137 12.0245 27.5502C11.8894 28.6866 12.0144 29.839 12.3901 30.92V30.92Z" fill="#C69C6D"/>
<path d="M57.38 48.28L51.59 30.86C51.5222 30.6512 51.3875 30.4704 51.2068 30.3457C51.026 30.221 50.8093 30.1593 50.59 30.17H13.36C13.1491 30.1702 12.9437 30.237 12.7731 30.3609C12.6024 30.4848 12.4754 30.6595 12.41 30.86L6.61998 48.28C6.56949 48.4342 6.55727 48.5983 6.58435 48.7582C6.61143 48.9182 6.67701 49.0691 6.77544 49.198C6.87386 49.327 7.00217 49.43 7.1493 49.4983C7.29644 49.5666 7.45797 49.5981 7.61998 49.59H56.43C56.5878 49.5899 56.7434 49.5524 56.884 49.4807C57.0245 49.4089 57.1461 49.3049 57.2388 49.1771C57.3314 49.0493 57.3925 48.9014 57.4171 48.7455C57.4416 48.5896 57.4289 48.4301 57.38 48.28Z" fill="#0071BC"/>
<path d="M57.82 47.59H6.18C5.33661 47.59 4.52777 47.925 3.9314 48.5214C3.33503 49.1177 3 49.9266 3 50.77C3 51.6134 3.33503 52.4222 3.9314 53.0186C4.52777 53.6149 5.33661 53.95 6.18 53.95H57.82C58.6634 53.95 59.4722 53.6149 60.0686 53.0186C60.665 52.4222 61 51.6134 61 50.77C61 49.9266 60.665 49.1177 60.0686 48.5214C59.4722 47.925 58.6634 47.59 57.82 47.59V47.59Z" fill="#2E3192"/>
<path d="M45.39 37.47C45.3903 36.6557 45.0984 35.8683 44.5672 35.2511C44.036 34.6338 43.3009 34.2277 42.4956 34.1066C41.6904 33.9855 40.8683 34.1575 40.1791 34.5912C39.4899 35.0249 38.9793 35.6916 38.74 36.47H25.26C23.18 31.18 15.92 35.59 19.61 39.88C15.92 44.18 23.19 48.58 25.26 43.29H38.74C40.82 48.58 48.08 44.18 44.39 39.88C44.7081 39.5646 44.9603 39.1892 45.132 38.7754C45.3036 38.3617 45.3914 37.918 45.39 37.47V37.47Z" fill="#E6E6E6"/>
</svg>
