<?xml version="1.0" encoding="UTF-8" standalone="no"?> <svg width="64" height="64" viewBox="0 0 64 64" fill="none" xmlns="http://www.w3.org/2000/svg">
<path d="M57.62 35.5901C62.1 33.2301 62.14 30.7901 57.62 28.4101C56.79 27.9301 55.42 27.1201 55.31 26.6801C55.49 24.6801 59.31 21.5101 58.13 19.4101C57.22 17.1601 52.41 18.1401 50.69 17.0901C50.39 16.7201 50.62 15.0901 50.76 14.1401C51.69 9.25012 49.88 7.71012 45.26 9.73012C42.06 10.9101 42.26 11.0101 41.18 7.80012C39.9 3.00012 37.62 2.31012 34.33 6.16012C33.61 6.93012 32.51 8.09012 32 8.09012C30.13 7.50012 27.86 3.00012 25.55 3.72012C23.14 4.11012 23 9.00012 21.63 10.4501C19.63 10.6901 15.71 7.69012 13.92 9.33012C11.92 10.7201 13.92 15.2001 13.31 17.0901C11.6 18.1401 6.78002 17.1501 5.87002 19.4101C4.67002 21.5101 8.49002 24.7201 8.69002 26.6801C8.58002 27.1201 7.21002 27.9301 6.38002 28.4101C1.90002 30.7701 1.86002 33.2101 6.38002 35.5901C7.21002 36.0701 8.58002 36.8801 8.69002 37.3201C8.51002 39.3201 4.69002 42.4901 5.87002 44.5901C6.78002 46.8401 11.59 45.8601 13.31 46.9101C13.96 48.8001 11.92 53.2801 13.92 54.6701C15.72 56.3001 19.63 53.3201 21.62 53.5501C23 55.0001 23.14 59.9001 25.55 60.2801C27.95 60.9301 30.08 56.5201 32 55.9101C33.88 56.5001 36.14 60.9701 38.45 60.2801C40.86 59.8901 40.99 55.0001 42.37 53.5501C44.37 53.3101 48.28 56.3101 50.08 54.6701C52.08 53.2801 50.08 48.8001 50.69 46.9101C50.99 46.5401 52.61 46.4001 53.57 46.3201C58.57 46.1501 59.68 44.0501 56.67 39.9901C54.79 37.1401 54.73 37.3101 57.62 35.5901Z" fill="#0071BC"/>
<path d="M36.79 32.51C35.4923 31.2923 33.7796 30.6145 32 30.6145C30.2204 30.6145 28.5077 31.2923 27.21 32.51L21.81 37.62C18.46 40.62 20.81 46.52 25.3 46.38C27.64 46.38 29.53 45.17 32 45.2C34.47 45.23 36.44 46.2 38.7 46.38C43.19 46.52 45.54 40.61 42.19 37.62L36.79 32.51Z" fill="#E6E6E6"/>
<path d="M45.88 24.8902C43.88 24.4502 41.83 26.3402 41.2 29.1902C40.54 32.2702 41.74 35.0602 44.2 35.1302C48.3 35.2702 50.52 26.1702 45.88 24.8902Z" fill="#E6E6E6"/>
<path d="M36.83 29.1601C42.45 29.0201 42.45 17.7601 36.83 17.6201C31.21 17.7601 31.21 29.0001 36.83 29.1601Z" fill="#E6E6E6"/>
<path d="M22.8001 29.1902C21.0001 22.1302 14.2401 24.4402 15.6901 30.7702C17.2301 37.4102 24.2001 36.0002 22.8001 29.1902Z" fill="#E6E6E6"/>
<path d="M27.1701 29.1601C32.7901 29.0201 32.7901 17.7601 27.1701 17.6201C21.5501 17.7601 21.5501 29.0001 27.1701 29.1601Z" fill="#E6E6E6"/>
</svg>
